<?xml version="1.0" encoding="UTF-8" standalone="no"?>
<!-- Created with Inkscape (http://www.inkscape.org/) -->

<svg
   width="12.424532mm"
   height="13.873911mm"
   viewBox="0 0 12.424532 13.873911"
   version="1.1"
   id="svg1"
   inkscape:export-filename="ico.webp"
   inkscape:export-xdpi="96"
   inkscape:export-ydpi="96"
   sodipodi:docname="ico.svg"
   inkscape:version="1.3 (0e150ed6c4, 2023-07-21)"
   xmlns:inkscape="http://www.inkscape.org/namespaces/inkscape"
   xmlns:sodipodi="http://sodipodi.sourceforge.net/DTD/sodipodi-0.dtd"
   xmlns="http://www.w3.org/2000/svg"
   xmlns:svg="http://www.w3.org/2000/svg">
  <sodipodi:namedview
     id="namedview1"
     pagecolor="#ffffff"
     bordercolor="#000000"
     borderopacity="0.25"
     inkscape:showpageshadow="2"
     inkscape:pageopacity="0.0"
     inkscape:pagecheckerboard="0"
     inkscape:deskcolor="#d1d1d1"
     inkscape:document-units="mm"
     inkscape:zoom="14.49363"
     inkscape:cx="23.458581"
     inkscape:cy="35.946826"
     inkscape:window-width="1920"
     inkscape:window-height="964"
     inkscape:window-x="0"
     inkscape:window-y="40"
     inkscape:window-maximized="1"
     inkscape:current-layer="layer1" />
  <defs
     id="defs1" />
  <g
     inkscape:label="Capa 1"
     inkscape:groupmode="layer"
     id="layer1"
     transform="translate(-152.92916,-56.885416)">
    <path
       style="fill:#6b1640;fill-opacity:1;stroke-width:1.39386"
       d="m 157.22959,70.548837 c -1.99285,-0.6538 -3.03766,-1.59402 -3.87509,-3.48717 -0.96314,-2.17735 -0.22655,-5.29387 1.56412,-6.61778 0.701,-0.51827 0.76949,-0.70195 0.76949,-2.06368 v -1.49479 h 0.90017 0.90016 v 1.73604 c -1e-5,1.68547 -0.027,1.7576 -0.92737,2.47599 -2.93064,2.33837 -2.25998,6.78536 1.24412,8.24946 2.36547,0.98836 5.01311,-0.11513 6.14131,-2.55963 0.91353,-1.97935 0.33861,-4.29014 -1.41562,-5.68983 -0.90035,-0.71839 -0.92736,-0.79052 -0.92737,-2.47599 0,-1.56458 0.0508,-1.73604 0.51438,-1.73604 0.45275,0 0.51438,0.17146 0.51438,1.43117 0,1.27901 0.0832,1.50117 0.78285,2.08988 2.40887,2.02692 2.60462,6.11115 0.40872,8.52767 -1.27635,1.40458 -4.68821,2.24001 -6.59425,1.6147 z m -0.0712,-2.64053 c -0.56684,-0.42238 -0.65396,-0.60791 -0.4186,-0.8915 0.16347,-0.19697 0.46903,-0.35813 0.67903,-0.35813 0.26425,0 0.32356,-0.13855 0.19263,-0.45008 -0.10405,-0.24755 -0.24545,-0.70936 -0.31422,-1.02625 -0.0998,-0.45986 -0.24839,-0.54522 -0.7361,-0.42281 -0.75237,0.18882 -0.99928,-0.3073 -0.63273,-1.27138 0.27746,-0.72977 1.04563,-0.9513 1.04563,-0.30155 0,0.56662 0.53909,0.45586 1.41455,-0.29061 0.49986,-0.42621 0.65836,-0.70221 0.45009,-0.78375 -0.17682,-0.0693 -0.32149,-0.34769 -0.32149,-0.61882 0,-0.40364 0.18637,-0.49295 1.02876,-0.49295 0.84239,0 1.02876,0.0893 1.02876,0.49295 0,0.27113 -0.14467,0.54959 -0.32148,0.61882 -0.20828,0.0815 -0.0498,0.35754 0.45008,0.78375 0.8218,0.70072 1.45618,0.87464 1.35025,0.37018 -0.0354,-0.16842 0.13791,-0.35044 0.38504,-0.4045 0.30193,-0.066 0.5374,0.1334 0.71777,0.60775 0.37321,0.98161 0.13146,1.48012 -0.62561,1.29011 -0.48772,-0.12238 -0.63632,-0.0371 -0.73611,0.42281 -0.0688,0.31689 -0.21016,0.7787 -0.31421,1.02625 -0.13092,0.31149 -0.0716,0.45008 0.19263,0.45008 0.20999,0 0.51651,0.16231 0.68115,0.36069 0.23896,0.28793 0.14191,0.47279 -0.48114,0.91644 -0.8722,0.62106 -1.29845,0.51341 -1.2982,-0.32784 1.5e-4,-0.47974 -0.14321,-0.56349 -0.96446,-0.56349 -0.81325,0 -0.98482,0.0975 -1.09323,0.62176 -0.17082,0.82589 -0.49724,0.88404 -1.35879,0.24207 z m 3.26935,-2.16815 c 0.77998,-0.78 0.21547,-2.16777 -0.8818,-2.16777 -0.61367,0 -1.28595,0.67229 -1.28595,1.28597 0,0.61366 0.67228,1.28594 1.28595,1.28594 0.2627,0 0.65951,-0.18187 0.8818,-0.40414 z"
       id="path2-5-2-2-6"
       inkscape:export-filename="ico.svg"
       inkscape:export-xdpi="96"
       inkscape:export-ydpi="96" />
  </g>
</svg>
